<svg width="1421" height="1024" viewBox="0 0 1421 1024" fill="none" xmlns="http://www.w3.org/2000/svg">
<g filter="url(#filter0_d_54_10953)">
<circle cx="215.432" cy="688.571" r="1.48525" fill="white" fill-opacity="0.7"/>
<circle cx="379.986" cy="759.406" r="1.015" fill="white" fill-opacity="0.7"/>
<circle cx="97.4568" cy="966.19" r="0.52" fill="white" fill-opacity="0.7"/>
<circle cx="1217.1" cy="682.263" r="0.49525" fill="white" fill-opacity="0.7"/>
<circle cx="852.999" cy="552.284" r="0.916" fill="white" fill-opacity="0.7"/>
<circle cx="818.452" cy="831.267" r="1.33675" fill="white" fill-opacity="0.7"/>
<circle cx="163.895" cy="283.373" r="1.5595" fill="white" fill-opacity="0.7"/>
<circle cx="1387.67" cy="819.489" r="1.609" fill="white" fill-opacity="0.7"/>
<circle cx="913.005" cy="358.607" r="1.43575" fill="white" fill-opacity="0.7"/>
<circle cx="592.995" cy="485.49" r="1.23775" fill="white" fill-opacity="0.7"/>
<circle cx="554.47" cy="184.865" r="1.63375" fill="white" fill-opacity="0.7"/>
<circle cx="925.938" cy="594.931" r="1.18825" fill="white" fill-opacity="0.7"/>
<circle cx="410.91" cy="560.755" r="0.64375" fill="white" fill-opacity="0.7"/>
<circle cx="1383.16" cy="653.37" r="0.39625" fill="white" fill-opacity="0.7"/>
<circle cx="889.221" cy="512.883" r="0.6685" fill="white" fill-opacity="0.7"/>
<circle cx="1213.88" cy="209.649" r="1.0645" fill="white" fill-opacity="0.7"/>
<circle cx="30.87" cy="161.044" r="1.28725" fill="white" fill-opacity="0.7"/>
<circle cx="451.594" cy="943.315" r="1.38625" fill="white" fill-opacity="0.7"/>
<circle cx="1411.45" cy="12.5913" r="1.38625" fill="white" fill-opacity="0.7"/>
<circle cx="598.394" cy="524.948" r="1.38625" fill="white" fill-opacity="0.7"/>
<circle cx="408.12" cy="870.029" r="1.88125" fill="white" fill-opacity="0.7"/>
<circle cx="602.788" cy="803.413" r="1.5595" fill="white" fill-opacity="0.7"/>
<circle cx="757.338" cy="1017.05" r="1.13875" fill="white" fill-opacity="0.7"/>
<circle cx="868.936" cy="537.3" r="0.89125" fill="white" fill-opacity="0.7"/>
<circle cx="503.12" cy="428.372" r="0.9655" fill="white" fill-opacity="0.7"/>
<circle cx="568.992" cy="239.468" r="1.18825" fill="white" fill-opacity="0.7"/>
<circle cx="501.464" cy="700.088" r="1.28725" fill="white" fill-opacity="0.7"/>
<circle cx="300.215" cy="623.634" r="1.411" fill="white" fill-opacity="0.7"/>
<circle cx="255.021" cy="985.552" r="1.51" fill="white" fill-opacity="0.7"/>
<circle cx="898.259" cy="755.247" r="1.63375" fill="white" fill-opacity="0.7"/>
<circle cx="1304.91" cy="48.8679" r="2.02975" fill="white" fill-opacity="0.7"/>
<circle cx="468.005" cy="447.396" r="1.807" fill="white" fill-opacity="0.7"/>
<circle cx="408.322" cy="548.749" r="1.609" fill="white" fill-opacity="0.7"/>
<circle cx="456.774" cy="320.272" r="1.51" fill="white" fill-opacity="0.7"/>
<circle cx="422.062" cy="267.176" r="1.51" fill="white" fill-opacity="0.7"/>
<circle cx="1355.32" cy="246.746" r="1.5595" fill="white" fill-opacity="0.7"/>
<circle cx="220.406" cy="857.831" r="1.51" fill="white" fill-opacity="0.7"/>
<circle cx="683.91" cy="223.974" r="1.5595" fill="white" fill-opacity="0.7"/>
<circle cx="732.822" cy="877.759" r="1.708" fill="white" fill-opacity="0.7"/>
<circle cx="721.113" cy="731.346" r="1.83175" fill="white" fill-opacity="0.7"/>
<circle cx="469.377" cy="323.016" r="1.93075" fill="white" fill-opacity="0.7"/>
<circle cx="952.481" cy="639.875" r="1.807" fill="white" fill-opacity="0.7"/>
<circle cx="739.708" cy="954.485" r="1.7575" fill="white" fill-opacity="0.7"/>
<circle cx="729.321" cy="366.183" r="1.807" fill="white" fill-opacity="0.7"/>
<circle cx="273.022" cy="908.873" r="1.83175" fill="white" fill-opacity="0.7"/>
<circle cx="620.364" cy="76.8451" r="1.807" fill="white" fill-opacity="0.7"/>
<circle cx="8.6585" cy="522.205" r="1.6585" fill="white" fill-opacity="0.7"/>
<circle cx="994.81" cy="71.3193" r="1.6585" fill="white" fill-opacity="0.7"/>
<circle cx="959.289" cy="808.424" r="1.807" fill="white" fill-opacity="0.7"/>
<circle cx="390.424" cy="618.08" r="1.906" fill="white" fill-opacity="0.7"/>
<circle cx="468.538" cy="269.663" r="1.68325" fill="white" fill-opacity="0.7"/>
<circle cx="27.1152" cy="280.544" r="1.5595" fill="white" fill-opacity="0.7"/>
<circle cx="354.57" cy="146.135" r="1.609" fill="white" fill-opacity="0.7"/>
<circle cx="1118.16" cy="88.311" r="1.7575" fill="white" fill-opacity="0.7"/>
<circle cx="305.822" cy="807.282" r="1.83175" fill="white" fill-opacity="0.7"/>
<circle cx="30.715" cy="717.145" r="1.7575" fill="white" fill-opacity="0.7"/>
<circle cx="785.058" cy="348.205" r="1.5595" fill="white" fill-opacity="0.7"/>
<circle cx="1162.58" cy="905.231" r="1.53475" fill="white" fill-opacity="0.7"/>
<circle cx="907.148" cy="622.016" r="1.73275" fill="white" fill-opacity="0.7"/>
<circle cx="498.223" cy="719.827" r="1.88125" fill="white" fill-opacity="0.7"/>
<circle cx="1246.2" cy="620.349" r="1.28725" fill="white" fill-opacity="0.7"/>
<circle cx="357.906" cy="571.926" r="1.1635" fill="white" fill-opacity="0.7"/>
<circle cx="201.514" cy="370.783" r="1.23775" fill="white" fill-opacity="0.7"/>
<circle cx="217.658" cy="24.8349" r="1.411" fill="white" fill-opacity="0.7"/>
<circle cx="745.125" cy="295.09" r="1.51" fill="white" fill-opacity="0.7"/>
<circle cx="1214.64" cy="454.722" r="1.43575" fill="white" fill-opacity="0.7"/>
<circle cx="691.459" cy="622.211" r="1.23775" fill="white" fill-opacity="0.7"/>
<circle cx="1029.07" cy="761.655" r="1.23775" fill="white" fill-opacity="0.7"/>
<circle cx="413.03" cy="8.53475" r="1.53475" fill="white" fill-opacity="0.7"/>
<circle cx="482.29" cy="286.53" r="1.807" fill="white" fill-opacity="0.7"/>
<circle cx="307.318" cy="870.171" r="0.74275" fill="white" fill-opacity="0.7"/>
<circle cx="621.526" cy="554.393" r="0.54475" fill="white" fill-opacity="0.7"/>
<circle cx="814.199" cy="812.166" r="0.5695" fill="white" fill-opacity="0.7"/>
<circle cx="318.595" cy="39.9736" r="0.79225" fill="white" fill-opacity="0.7"/>
<circle cx="827.263" cy="834.344" r="0.94075" fill="white" fill-opacity="0.7"/>
<circle cx="1166.79" cy="792.266" r="0.8665" fill="white" fill-opacity="0.7"/>
<circle cx="568.05" cy="904.56" r="0.64375" fill="white" fill-opacity="0.7"/>
<circle cx="527.53" cy="541.939" r="0.7675" fill="white" fill-opacity="0.7"/>
<circle cx="332.456" cy="693.806" r="1.2625" fill="white" fill-opacity="0.7"/>
<circle cx="221.014" cy="16.4126" r="1.68325" fill="white" fill-opacity="0.7"/>
<circle cx="213.08" cy="394.605" r="0.2725" fill="white" fill-opacity="0.7"/>
<circle cx="185.927" cy="64.4146" r="0.025" fill="white" fill-opacity="0.7"/>
<circle cx="1315.93" cy="836.403" r="0.025" fill="white" fill-opacity="0.7"/>
<circle cx="1413.3" cy="615.261" r="0.04975" fill="white" fill-opacity="0.7"/>
<circle cx="333.853" cy="22.9902" r="0.24775" fill="white" fill-opacity="0.7"/>
<circle cx="725.265" cy="8.84623" r="0.2725" fill="white" fill-opacity="0.7"/>
<circle cx="268.902" cy="1017.38" r="0.14875" fill="white" fill-opacity="0.7"/>
<circle cx="830.881" cy="71.8637" r="0.44575" fill="white" fill-opacity="0.7"/>
<circle cx="441.721" cy="885.531" r="1.114" fill="white" fill-opacity="0.7"/>
<circle cx="355.255" cy="920.014" r="1.58425" fill="white" fill-opacity="0.7"/>
<circle cx="1077.3" cy="86.5146" r="0.39625" fill="white" fill-opacity="0.7"/>
<circle cx="887.496" cy="262.666" r="0.0745" fill="white" fill-opacity="0.7"/>
<circle cx="541.222" cy="64.7886" r="0.025" fill="white" fill-opacity="0.7"/>
<circle cx="786.598" cy="957.675" r="0.025" fill="white" fill-opacity="0.7"/>
<circle cx="1113.14" cy="92.1804" r="0.09925" fill="white" fill-opacity="0.7"/>
<circle cx="694.838" cy="17.144" r="0.2725" fill="white" fill-opacity="0.7"/>
<circle cx="1042.61" cy="446.228" r="0.322" fill="white" fill-opacity="0.7"/>
<circle cx="1312.98" cy="938.518" r="0.69325" fill="white" fill-opacity="0.7"/>
<circle cx="590.623" cy="587.478" r="1.28725" fill="white" fill-opacity="0.7"/>
<circle cx="419.89" cy="350.23" r="1.6585" fill="white" fill-opacity="0.7"/>
</g>
<defs>
<filter id="filter0_d_54_10953" x="0" y="0" width="1420.35" height="1025.18" filterUnits="userSpaceOnUse" color-interpolation-filters="sRGB">
<feFlood flood-opacity="0" result="BackgroundImageFix"/>
<feColorMatrix in="SourceAlpha" type="matrix" values="0 0 0 0 0 0 0 0 0 0 0 0 0 0 0 0 0 0 127 0" result="hardAlpha"/>
<feOffset/>
<feGaussianBlur stdDeviation="3.5"/>
<feComposite in2="hardAlpha" operator="out"/>
<feColorMatrix type="matrix" values="0 0 0 0 1 0 0 0 0 1 0 0 0 0 1 0 0 0 1 0"/>
<feBlend mode="normal" in2="BackgroundImageFix" result="effect1_dropShadow_54_10953"/>
<feBlend mode="normal" in="SourceGraphic" in2="effect1_dropShadow_54_10953" result="shape"/>
</filter>
</defs>
</svg>
